<!-- SPDX-FileCopyrightText: 2026 Blackcat Informatics® Inc. <paudley@blackcatinformatics.ca> -->
<!-- SPDX-License-Identifier: MIT OR Apache-2.0 -->
<svg xmlns="http://www.w3.org/2000/svg" viewBox="0 0 1024 1024" role="img" aria-labelledby="title desc">
  <title id="title">Logit Loom black cat token-transform logo</title>
  <desc id="desc">A stylized black cat head holding a small loom whose dark candidate-logit warp threads are crossed by red, blue, yellow, and green ordered transform stages.</desc>
  <defs>
    <filter id="soft-white-glow" x="-12%" y="-12%" width="124%" height="124%" color-interpolation-filters="sRGB">
      <feDropShadow dx="0" dy="0" stdDeviation="18" flood-color="#ffffff" flood-opacity="0.78"/>
      <feDropShadow dx="0" dy="0" stdDeviation="5" flood-color="#ffffff" flood-opacity="0.72"/>
    </filter>
    <style>
      /* Color tokens: cat #111214, paper #fffdf5, ink #111214, feature #ffffff, red #ea4335, blue #4285f4, yellow #fbbc05, green #34a853 */
      .cat { fill: #111214; }
      .feature { fill: #ffffff; }
      .feature-stroke { fill: none; stroke: #ffffff; stroke-linecap: round; stroke-linejoin: round; }
      .frame { fill: #fffdf5; stroke: #111214; stroke-width: 8; }
      .warp { fill: none; stroke: #111214; stroke-width: 7; stroke-linecap: round; }
      .weft { fill: none; stroke-width: 12; stroke-linecap: round; stroke-linejoin: round; }
    </style>
  </defs>

  <!--
    Logo system note (Logit Loom variant; see docs/BRAND.md):
    - #cat-head-core is shared verbatim with the black-cat family template.
    - #service-loom is this repo's service object: candidate-logit warp threads
      crossed by ordered transform-stage weft passes, replacing the template's
      held service object while preserving the cat silhouette.
    - Accent colors are isolated to the #transform-stages paths for theming.
  -->

  <g id="logit-loom-logo" filter="url(#soft-white-glow)">
    <g id="cat-head-core">
      <path id="cat-silhouette" class="cat" d="
        M512 268
        C548 268 583 272 616 282
        C677 204 777 116 811 119
        C833 154 842 280 825 374
        C820 405 813 434 804 459
        C820 474 842 481 864 478
        C853 507 827 529 794 540
        C817 551 841 555 867 552
        C850 580 817 601 776 607
        C737 694 635 750 512 750
        C389 750 287 694 248 607
        C207 601 174 580 157 552
        C183 555 207 551 230 540
        C197 529 171 507 160 478
        C182 481 204 474 220 459
        C211 434 204 405 199 374
        C182 280 191 154 213 119
        C247 116 347 204 408 282
        C441 272 476 268 512 268 Z"/>

      <path id="left-inner-ear" class="feature" d="
        M251 173
        C289 192 360 250 399 318
        C364 337 330 355 299 374
        C267 312 247 235 251 173 Z"/>
      <path id="right-inner-ear" class="feature" d="
        M773 173
        C735 192 664 250 625 318
        C660 337 694 355 725 374
        C757 312 777 235 773 173 Z"/>

      <path id="left-eye" class="feature" d="
        M307 458
        C352 427 420 426 474 459
        C430 501 358 503 307 458 Z"/>
      <path id="right-eye" class="feature" d="
        M550 459
        C604 426 672 427 717 458
        C666 503 594 501 550 459 Z"/>

      <path id="left-pupil" class="cat" d="
        M386 442
        C407 470 407 527 386 555
        C365 527 365 470 386 442 Z"/>
      <path id="right-pupil" class="cat" d="
        M638 442
        C659 470 659 527 638 555
        C617 527 617 470 638 442 Z"/>
      <path id="left-eye-spark" class="feature" d="M396 461 C404 474 403 493 396 508 C386 493 387 474 396 461 Z"/>
      <path id="right-eye-spark" class="feature" d="M648 461 C656 474 655 493 648 508 C638 493 639 474 648 461 Z"/>

      <path id="left-brow" class="feature-stroke" stroke-width="9" d="M307 422 C358 397 432 405 474 447"/>
      <path id="right-brow" class="feature-stroke" stroke-width="9" d="M717 422 C666 397 592 405 550 447"/>

      <path id="nose" class="feature" d="
        M475 570
        C491 558 533 558 549 570
        C544 586 528 601 512 614
        C496 601 480 586 475 570 Z"/>

      <g id="whiskers" stroke-width="7">
        <path class="feature-stroke" d="M226 552 C293 541 354 546 409 566"/>
        <path class="feature-stroke" d="M236 585 C301 572 361 578 416 599"/>
        <path class="feature-stroke" d="M798 552 C731 541 670 546 615 566"/>
        <path class="feature-stroke" d="M788 585 C723 572 663 578 608 599"/>
      </g>
    </g>

    <g id="service-loom">
      <!-- Candidate-logit warp threads run through every ordered stage. -->
      <g id="candidate-warps">
        <path class="warp" d="M382 678 V884"/>
        <path class="warp" d="M448 678 V884"/>
        <path class="warp" d="M514 678 V884"/>
        <path class="warp" d="M580 678 V884"/>
        <path class="warp" d="M646 678 V884"/>
      </g>

      <!-- Transform stages execute from top to bottom in declared order. -->
      <g id="transform-stages">
        <path id="stage-red" class="weft" stroke="#ea4335" d="M338 724 C360 706 382 706 404 724 S448 742 470 724 S514 706 536 724 S580 742 602 724 S646 706 686 724"/>
        <path id="stage-blue" class="weft" stroke="#4285f4" d="M338 762 C360 780 382 780 404 762 S448 744 470 762 S514 780 536 762 S580 744 602 762 S646 780 686 762"/>
        <path id="stage-yellow" class="weft" stroke="#fbbc05" d="M338 800 C360 782 382 782 404 800 S448 818 470 800 S514 782 536 800 S580 818 602 800 S646 782 686 800"/>
        <path id="stage-green" class="weft" stroke="#34a853" d="M338 838 C360 856 382 856 404 838 S448 820 470 838 S514 856 536 838 S580 820 602 838 S646 856 686 838"/>
      </g>

      <!-- The paper-and-ink frame masks the thread ends and holds the loom. -->
      <g id="loom-frame">
        <rect class="frame" x="302" y="636" width="420" height="64" rx="16"/>
        <rect class="frame" x="302" y="684" width="48" height="194" rx="14"/>
        <rect class="frame" x="674" y="684" width="48" height="194" rx="14"/>
        <rect class="frame" x="302" y="862" width="420" height="64" rx="16"/>
      </g>
    </g>

    <g id="mouth-bite" class="cat">
      <path id="upper-mouth" d="
        M459 604
        C474 621 492 629 512 629
        C532 629 550 621 565 604
        L565 637
        C552 633 545 642 540 657
        C527 650 518 640 512 627
        C506 640 497 650 484 657
        C479 642 472 633 459 637 Z"/>
      <path id="left-tiny-fang" d="M446 615 L471 615 L459 638 Z"/>
      <path id="right-tiny-fang" d="M553 615 L578 615 L565 638 Z"/>
    </g>
  </g>
</svg>
